<?xml version="1.0" encoding="utf-8"?>
<!-- Generator: Adobe Illustrator 25.3.1, SVG Export Plug-In . SVG Version: 6.00 Build 0)  -->
<svg version="1.1" id="圖層_1" xmlns="http://www.w3.org/2000/svg" xmlns:xlink="http://www.w3.org/1999/xlink" x="0px" y="0px"
	 viewBox="0 0 126 127" style="enable-background:new 0 0 126 127;" xml:space="preserve">
<style type="text/css">
	.st0{fill:#FD8369;}
	.st1{fill:#EA6552;}
	.st2{fill:#495057;}
	.st3{fill:#E6E5E5;}
	.st4{fill:#FECE66;}
	.st5{fill:#F5B540;}
</style>
<desc>Created with Sketch.</desc>
<g>
	<circle class="st0" cx="62.9" cy="63.2" r="62.8"/>
	<path class="st1" d="M67.3,21.5L65,19.2c-0.1-0.1-0.2-0.2-0.3-0.2c3.8,7.4,0.5,17.7-9.7,24.6c-0.4,0.3-0.8,0.6-1.2,0.9
		c-4.2,3.6-6.8,8.8-6.8,14.8c0,1.8,0.5,3.1,0.6,4.9c0.1,1.7-1,3.1-2.5,3.5l-4.3-4.3c-0.6,1.3-0.9,2.8-0.9,4.3c0,0.3,0,0.6,0,1
		c0,0.1,0,0.2,0,0.3c0,0.2,0.1,0.4,0.1,0.7c0,0.1,0,0.2,0.1,0.3c0,0.2,0.1,0.5,0.2,0.7c0,0.1,0,0.1,0.1,0.2c0.1,0.3,0.2,0.6,0.3,0.9
		c0,0.1,0,0.1,0.1,0.2c0.1,0.2,0.2,0.5,0.3,0.7c0,0.1,0.1,0.1,0.1,0.2c0.1,0.2,0.2,0.5,0.4,0.7c0,0,0,0.1,0.1,0.1
		c0.5,0.8,1.1,1.5,1.8,2.2l2.9,2.9h-8.3c-0.3,0-0.7,0.1-0.9,0.4c-0.3,0.3-0.4,0.6-0.4,0.9v7.4h-7.4c-0.3,0-0.7,0.1-0.9,0.4
		c-0.3,0.2-0.4,0.6-0.4,0.9v6.1c0,0.3,0.1,0.6,0.4,0.9l0,0l30.2,30.2c1.4,0.1,2.7,0.1,4.1,0.1c29.5,0,54.3-20.4,61-47.8L67.3,21.5z"
		/>
	<g>
		<path class="st2" d="M84,72.3c0,0.6-0.5,1-1,1c-0.6,0-1-0.5-1-1c0-0.2,0.1-0.4,0.2-0.6c0-0.1,0.1-0.1,0.2-0.2
			c0.1-0.2,0.3-0.3,0.4-0.5c2.5-3.3,4-7.3,4-11.8c0-3.9-1.2-7.5-3.1-10.6c-0.1,2.9-2.4,5.3-5.4,5.3c-3,0-5.4-2.4-5.4-5.4
			c0-0.5,0.1-0.9,0.2-1.3c0,0,0,0,0,0c0.1-0.3,0.2-0.5,0.3-0.8c0,0,0,0,0,0c0.5-1.7,0.9-3.4,1.1-5.2c0.1-0.9,0.1-1.8,0.1-2.7
			c0-7.8-3.5-14.8-9-19.5c3.8,7.4,0.5,17.7-9.7,24.6c-0.4,0.3-0.8,0.6-1.2,0.9c-4.2,3.6-6.8,8.8-6.8,14.8c0,1.8,0.5,3.1,0.6,4.9
			c0.2,2.1-1.6,3.6-3.5,3.6c-1.9,0-3.4-1.5-3.4-3.4c0-0.3,0-0.7,0.1-1c-0.6,1.3-0.9,2.8-0.9,4.3c0,4.4,2.6,8.3,6.4,10
			c0.8,0.4,1.7,0.7,2.6,0.8c0.6,0.1,1.2,0.2,1.9,0.2c2.5,0,25.4,0,26.9,0c0.3,0,0.5,0,0.8-0.1c0.5-0.1,1-0.2,1.4-0.4
			c1.9-0.9,3.3-2.8,3.3-5C84.1,72.9,84.1,72.5,84,72.3C84,72.2,84,72.3,84,72.3z"/>
		<path class="st3" d="M56,75.6c0,0.3,0.2,0.5,0.5,0.5c0.3,0,0.5-0.2,0.5-0.5c0-0.1,0-0.2-0.1-0.3c0,0-0.1-0.1-0.1-0.1
			c-0.1-0.1-0.1-0.2-0.2-0.2c-1.2-1.5-1.9-3.5-1.9-5.6c0-1.9,0.5-3.6,1.5-5c0,1.4,1.2,2.5,2.5,2.5c1.4,0,2.5-1.1,2.5-2.5
			c0-0.2,0-0.4-0.1-0.6c0,0,0,0,0,0c0-0.1-0.1-0.2-0.1-0.4c0,0,0,0,0,0c-0.3-0.8-0.4-1.6-0.5-2.5c0-0.4-0.1-0.9-0.1-1.3
			c0-3.7,1.7-7,4.3-9.3c-1.8,3.5-0.2,8.4,4.6,11.7c0.2,0.1,0.4,0.3,0.6,0.4c2,1.7,3.2,4.2,3.2,7c0,0.8-0.2,1.5-0.3,2.3
			c-0.1,1,0.8,1.7,1.7,1.7c0.9,0,1.6-0.7,1.6-1.6c0-0.2,0-0.3-0.1-0.5c0.3,0.6,0.4,1.3,0.4,2.1c0,2.1-1.3,3.9-3.1,4.7
			c-0.4,0.2-0.8,0.3-1.3,0.4c-0.3,0.1-0.6,0.1-0.9,0.1c-1.2,0-12.1,0-12.8,0c-0.1,0-0.3,0-0.4,0c-0.2,0-0.5-0.1-0.7-0.2
			C56.6,78,56,77.1,56,76.1C56,75.9,56,75.8,56,75.6C56,75.6,56,75.6,56,75.6z"/>
		<g>
			<path class="st4" d="M81.1,96h16.1c0.3,0,0.7-0.1,0.9-0.4c0.3-0.2,0.4-0.6,0.4-0.9v-6.1c0-0.3-0.1-0.7-0.4-0.9
				c-0.2-0.3-0.6-0.4-0.9-0.4H81.1V96z"/>
			<path class="st5" d="M29,94.7c0,0.3,0.1,0.7,0.4,0.9c0.3,0.2,0.6,0.4,0.9,0.4h16.1v-8.7H30.3c-0.3,0-0.7,0.1-0.9,0.4
				C29.1,88,29,88.3,29,88.6V94.7z"/>
			<rect x="63.7" y="87.3" class="st5" width="17.4" height="8.7"/>
			<rect x="46.4" y="87.3" class="st4" width="17.4" height="8.7"/>
			<path class="st5" d="M72.4,87.3h17.4V80c0-0.3-0.1-0.7-0.4-0.9c-0.2-0.2-0.6-0.4-0.9-0.4H72.4V87.3z"/>
			<rect x="55" y="78.7" class="st4" width="17.4" height="8.7"/>
			<path class="st5" d="M37.7,87.3H55v-8.7H39c-0.3,0-0.7,0.1-0.9,0.4c-0.3,0.3-0.4,0.6-0.4,0.9V87.3z"/>
		</g>
	</g>
</g>
</svg>
