<?xml version="1.0" encoding="utf-8"?>
<!-- Generator: Adobe Illustrator 25.3.1, SVG Export Plug-In . SVG Version: 6.00 Build 0)  -->
<svg version="1.1" id="圖層_1" xmlns="http://www.w3.org/2000/svg" xmlns:xlink="http://www.w3.org/1999/xlink" x="0px" y="0px"
	 viewBox="0 0 132 131" style="enable-background:new 0 0 132 131;" xml:space="preserve">
<style type="text/css">
	.st0{fill:#FD8369;}
	.st1{fill:#EA6552;}
	.st2{fill:#495057;}
	.st3{fill:#E6E5E5;}
	.st4{fill:#FECE66;}
	.st5{fill:#F5B540;}
</style>
<desc>Created with Sketch.</desc>
<circle class="st0" cx="66.1" cy="65.2" r="65.3"/>
<path class="st1" d="M70.6,21.9l-2.4-2.4c-0.1-0.1-0.2-0.2-0.3-0.2c3.9,7.7,0.5,18.4-10,25.5c-0.4,0.3-0.8,0.6-1.2,1
	c-4.3,3.7-7.1,9.2-7.1,15.3c0,1.8,0.5,3.2,0.6,5.1c0.1,1.8-1.1,3.2-2.6,3.6l-4.4-4.4c-0.6,1.4-0.9,2.9-0.9,4.5c0,0.3,0,0.7,0,1
	c0,0.1,0,0.2,0,0.3c0,0.2,0.1,0.5,0.1,0.7c0,0.1,0,0.2,0.1,0.3c0.1,0.2,0.1,0.5,0.2,0.7c0,0.1,0,0.1,0.1,0.2
	c0.1,0.3,0.2,0.6,0.3,0.9c0,0.1,0,0.1,0.1,0.2c0.1,0.2,0.2,0.5,0.3,0.7c0,0.1,0.1,0.1,0.1,0.2c0.1,0.2,0.3,0.5,0.4,0.7
	c0,0,0.1,0.1,0.1,0.1c0.5,0.8,1.2,1.6,1.9,2.3l3,3h-8.6c-0.3,0-0.7,0.1-0.9,0.4c-0.3,0.3-0.4,0.6-0.4,0.9v7.7h-7.7
	c-0.3,0-0.7,0.1-0.9,0.4c-0.3,0.3-0.4,0.6-0.4,0.9V98c0,0.3,0.1,0.7,0.4,0.9l0,0l31.4,31.4c1.4,0.1,2.8,0.2,4.3,0.2
	c30.7,0,56.4-21.2,63.4-49.7L70.6,21.9z"/>
<g>
	<path class="st2" d="M88,74.7c0,0.6-0.5,1.1-1.1,1.1c-0.6,0-1.1-0.5-1.1-1.1c0-0.2,0.1-0.4,0.2-0.6c0.1-0.1,0.1-0.2,0.2-0.2
		c0.1-0.2,0.3-0.4,0.4-0.5c2.6-3.4,4.1-7.6,4.1-12.2c0-4.1-1.2-7.8-3.3-11c-0.1,3-2.5,5.5-5.6,5.5c-3.1,0-5.6-2.5-5.6-5.6
		c0-0.5,0.1-0.9,0.2-1.4c0,0,0,0,0,0c0.1-0.3,0.2-0.5,0.3-0.8c0,0,0,0,0,0c0.6-1.7,1-3.6,1.2-5.5c0.1-0.9,0.1-1.9,0.1-2.8
		c0-8.1-3.6-15.4-9.3-20.3c3.9,7.7,0.5,18.4-10,25.5c-0.4,0.3-0.8,0.6-1.2,1c-4.3,3.7-7.1,9.2-7.1,15.3c0,1.8,0.5,3.2,0.6,5.1
		c0.2,2.2-1.7,3.8-3.6,3.8c-2,0-3.6-1.6-3.6-3.6c0-0.4,0.1-0.7,0.1-1c-0.6,1.4-0.9,2.9-0.9,4.5c0,4.6,2.7,8.6,6.7,10.4
		c0.9,0.4,1.8,0.7,2.7,0.8c0.6,0.1,1.3,0.2,2,0.2c2.6,0,26.4,0,27.9,0c0.3,0,0.6,0,0.8-0.1c0.5-0.1,1-0.2,1.5-0.4
		c2-0.9,3.4-2.9,3.4-5.2C88.1,75.2,88.1,74.9,88,74.7C88,74.6,88,74.6,88,74.7z"/>
	<path class="st3" d="M58.9,78.1c0,0.3,0.2,0.5,0.5,0.5c0.3,0,0.5-0.2,0.5-0.5c0-0.1,0-0.2-0.1-0.3c0,0-0.1-0.1-0.1-0.1
		c-0.1-0.1-0.1-0.2-0.2-0.3c-1.2-1.6-2-3.6-2-5.8c0-1.9,0.6-3.7,1.5-5.2c0,1.4,1.2,2.6,2.6,2.6c1.5,0,2.6-1.2,2.6-2.6
		c0-0.2,0-0.4-0.1-0.7c0,0,0,0,0,0c0-0.1-0.1-0.3-0.1-0.4c0,0,0,0,0,0c-0.3-0.8-0.5-1.7-0.5-2.6c0-0.4-0.1-0.9-0.1-1.3
		c0-3.9,1.7-7.3,4.4-9.6c-1.9,3.6-0.2,8.7,4.8,12.1c0.2,0.1,0.4,0.3,0.6,0.5c2.1,1.8,3.4,4.4,3.4,7.3c0,0.9-0.2,1.5-0.3,2.4
		c-0.1,1,0.8,1.8,1.7,1.8c0.9,0,1.7-0.8,1.7-1.7c0-0.2,0-0.3-0.1-0.5c0.3,0.7,0.4,1.4,0.4,2.1c0,2.2-1.3,4.1-3.2,4.9
		c-0.4,0.2-0.8,0.3-1.3,0.4c-0.3,0.1-0.6,0.1-0.9,0.1c-1.2,0-12.5,0-13.3,0c-0.1,0-0.3,0-0.4,0c-0.2,0-0.5-0.1-0.7-0.2
		c-1-0.4-1.6-1.4-1.6-2.5C58.9,78.4,58.9,78.2,58.9,78.1C58.9,78.1,58.9,78.1,58.9,78.1z"/>
	<g>
		<path class="st4" d="M85,99.3h16.7c0.3,0,0.7-0.1,0.9-0.4c0.3-0.3,0.4-0.6,0.4-0.9v-6.3c0-0.3-0.1-0.7-0.4-0.9
			c-0.3-0.3-0.6-0.4-0.9-0.4H85V99.3z"/>
		<path class="st5" d="M30.9,98c0,0.3,0.1,0.7,0.4,0.9c0.3,0.3,0.6,0.4,0.9,0.4h16.7v-9H32.2c-0.3,0-0.7,0.1-0.9,0.4
			c-0.3,0.3-0.4,0.6-0.4,0.9V98z"/>
		<rect x="66.9" y="90.3" class="st5" width="18" height="9"/>
		<rect x="48.9" y="90.3" class="st4" width="18" height="9"/>
		<path class="st5" d="M76,90.3h18v-7.7c0-0.3-0.1-0.7-0.4-0.9c-0.3-0.3-0.6-0.4-0.9-0.4H76V90.3z"/>
		<rect x="57.9" y="81.3" class="st4" width="18" height="9"/>
		<path class="st5" d="M39.9,90.3h18v-9H41.2c-0.3,0-0.7,0.1-0.9,0.4c-0.3,0.3-0.4,0.6-0.4,0.9V90.3z"/>
	</g>
</g>
</svg>
